<mxfile host="app.diagrams.net" modified="2021-07-09T11:10:30.176Z" agent="5.0 (Windows NT 10.0; Win64; x64) AppleWebKit/537.36 (KHTML, like Gecko) Chrome/91.0.4472.124 Safari/537.36" etag="qHnfoRbWJUxQNSjJsvXY" version="14.8.5" type="github">
  <diagram id="qVj__1jxc_U7gUrbAWG0" name="第 1 页">
    <mxGraphModel dx="2062" dy="1104" grid="1" gridSize="10" guides="1" tooltips="1" connect="1" arrows="1" fold="1" page="1" pageScale="1" pageWidth="827" pageHeight="1169" math="0" shadow="0">
      <root>
        <mxCell id="0" />
        <mxCell id="1" parent="0" />
        <mxCell id="ZMaBbFyFWC1W5k3W71gB-268" value="" style="shape=table;startSize=0;container=1;collapsible=0;childLayout=tableLayout;" vertex="1" parent="1">
          <mxGeometry x="260" y="520" width="200" height="200" as="geometry" />
        </mxCell>
        <mxCell id="ZMaBbFyFWC1W5k3W71gB-269" value="" style="shape=partialRectangle;collapsible=0;dropTarget=0;pointerEvents=0;fillColor=none;top=0;left=0;bottom=0;right=0;points=[[0,0.5],[1,0.5]];portConstraint=eastwest;" vertex="1" parent="ZMaBbFyFWC1W5k3W71gB-268">
          <mxGeometry width="200" height="40" as="geometry" />
        </mxCell>
        <mxCell id="ZMaBbFyFWC1W5k3W71gB-270" value="" style="shape=partialRectangle;html=1;whiteSpace=wrap;connectable=0;overflow=hidden;fillColor=none;top=0;left=0;bottom=0;right=0;" vertex="1" parent="ZMaBbFyFWC1W5k3W71gB-269">
          <mxGeometry width="40" height="40" as="geometry" />
        </mxCell>
        <mxCell id="ZMaBbFyFWC1W5k3W71gB-271" value="" style="shape=partialRectangle;html=1;whiteSpace=wrap;connectable=0;overflow=hidden;fillColor=none;top=0;left=0;bottom=0;right=0;" vertex="1" parent="ZMaBbFyFWC1W5k3W71gB-269">
          <mxGeometry x="40" width="40" height="40" as="geometry" />
        </mxCell>
        <mxCell id="ZMaBbFyFWC1W5k3W71gB-272" value="" style="shape=partialRectangle;html=1;whiteSpace=wrap;connectable=0;overflow=hidden;fillColor=none;top=0;left=0;bottom=0;right=0;" vertex="1" parent="ZMaBbFyFWC1W5k3W71gB-269">
          <mxGeometry x="80" width="40" height="40" as="geometry" />
        </mxCell>
        <mxCell id="ZMaBbFyFWC1W5k3W71gB-273" value="" style="shape=partialRectangle;html=1;whiteSpace=wrap;connectable=0;overflow=hidden;fillColor=none;top=0;left=0;bottom=0;right=0;" vertex="1" parent="ZMaBbFyFWC1W5k3W71gB-269">
          <mxGeometry x="120" width="40" height="40" as="geometry" />
        </mxCell>
        <mxCell id="ZMaBbFyFWC1W5k3W71gB-274" value="" style="shape=partialRectangle;html=1;whiteSpace=wrap;connectable=0;overflow=hidden;fillColor=none;top=0;left=0;bottom=0;right=0;" vertex="1" parent="ZMaBbFyFWC1W5k3W71gB-269">
          <mxGeometry x="160" width="40" height="40" as="geometry" />
        </mxCell>
        <mxCell id="ZMaBbFyFWC1W5k3W71gB-275" value="" style="shape=partialRectangle;collapsible=0;dropTarget=0;pointerEvents=0;fillColor=none;top=0;left=0;bottom=0;right=0;points=[[0,0.5],[1,0.5]];portConstraint=eastwest;" vertex="1" parent="ZMaBbFyFWC1W5k3W71gB-268">
          <mxGeometry y="40" width="200" height="40" as="geometry" />
        </mxCell>
        <mxCell id="ZMaBbFyFWC1W5k3W71gB-276" value="" style="shape=partialRectangle;html=1;whiteSpace=wrap;connectable=0;overflow=hidden;fillColor=none;top=0;left=0;bottom=0;right=0;" vertex="1" parent="ZMaBbFyFWC1W5k3W71gB-275">
          <mxGeometry width="40" height="40" as="geometry" />
        </mxCell>
        <mxCell id="ZMaBbFyFWC1W5k3W71gB-277" value="" style="shape=partialRectangle;html=1;whiteSpace=wrap;connectable=0;overflow=hidden;fillColor=#f0a30a;top=0;left=0;bottom=0;right=0;strokeColor=#BD7000;fontColor=#000000;" vertex="1" parent="ZMaBbFyFWC1W5k3W71gB-275">
          <mxGeometry x="40" width="40" height="40" as="geometry" />
        </mxCell>
        <mxCell id="ZMaBbFyFWC1W5k3W71gB-278" value="" style="shape=partialRectangle;html=1;whiteSpace=wrap;connectable=0;overflow=hidden;fillColor=none;top=0;left=0;bottom=0;right=0;" vertex="1" parent="ZMaBbFyFWC1W5k3W71gB-275">
          <mxGeometry x="80" width="40" height="40" as="geometry" />
        </mxCell>
        <mxCell id="ZMaBbFyFWC1W5k3W71gB-279" value="" style="shape=partialRectangle;html=1;whiteSpace=wrap;connectable=0;overflow=hidden;fillColor=none;top=0;left=0;bottom=0;right=0;" vertex="1" parent="ZMaBbFyFWC1W5k3W71gB-275">
          <mxGeometry x="120" width="40" height="40" as="geometry" />
        </mxCell>
        <mxCell id="ZMaBbFyFWC1W5k3W71gB-280" value="" style="shape=partialRectangle;html=1;whiteSpace=wrap;connectable=0;overflow=hidden;fillColor=none;top=0;left=0;bottom=0;right=0;" vertex="1" parent="ZMaBbFyFWC1W5k3W71gB-275">
          <mxGeometry x="160" width="40" height="40" as="geometry" />
        </mxCell>
        <mxCell id="ZMaBbFyFWC1W5k3W71gB-281" value="" style="shape=partialRectangle;collapsible=0;dropTarget=0;pointerEvents=0;fillColor=none;top=0;left=0;bottom=0;right=0;points=[[0,0.5],[1,0.5]];portConstraint=eastwest;" vertex="1" parent="ZMaBbFyFWC1W5k3W71gB-268">
          <mxGeometry y="80" width="200" height="40" as="geometry" />
        </mxCell>
        <mxCell id="ZMaBbFyFWC1W5k3W71gB-282" value="" style="shape=partialRectangle;html=1;whiteSpace=wrap;connectable=0;overflow=hidden;fillColor=none;top=0;left=0;bottom=0;right=0;" vertex="1" parent="ZMaBbFyFWC1W5k3W71gB-281">
          <mxGeometry width="40" height="40" as="geometry" />
        </mxCell>
        <mxCell id="ZMaBbFyFWC1W5k3W71gB-283" value="" style="shape=partialRectangle;html=1;whiteSpace=wrap;connectable=0;overflow=hidden;fillColor=none;top=0;left=0;bottom=0;right=0;" vertex="1" parent="ZMaBbFyFWC1W5k3W71gB-281">
          <mxGeometry x="40" width="40" height="40" as="geometry" />
        </mxCell>
        <mxCell id="ZMaBbFyFWC1W5k3W71gB-284" value="" style="shape=partialRectangle;html=1;whiteSpace=wrap;connectable=0;overflow=hidden;fillColor=none;top=0;left=0;bottom=0;right=0;" vertex="1" parent="ZMaBbFyFWC1W5k3W71gB-281">
          <mxGeometry x="80" width="40" height="40" as="geometry" />
        </mxCell>
        <mxCell id="ZMaBbFyFWC1W5k3W71gB-285" value="" style="shape=partialRectangle;html=1;whiteSpace=wrap;connectable=0;overflow=hidden;fillColor=none;top=0;left=0;bottom=0;right=0;" vertex="1" parent="ZMaBbFyFWC1W5k3W71gB-281">
          <mxGeometry x="120" width="40" height="40" as="geometry" />
        </mxCell>
        <mxCell id="ZMaBbFyFWC1W5k3W71gB-286" value="" style="shape=partialRectangle;html=1;whiteSpace=wrap;connectable=0;overflow=hidden;fillColor=none;top=0;left=0;bottom=0;right=0;" vertex="1" parent="ZMaBbFyFWC1W5k3W71gB-281">
          <mxGeometry x="160" width="40" height="40" as="geometry" />
        </mxCell>
        <mxCell id="ZMaBbFyFWC1W5k3W71gB-287" value="" style="shape=partialRectangle;collapsible=0;dropTarget=0;pointerEvents=0;fillColor=none;top=0;left=0;bottom=0;right=0;points=[[0,0.5],[1,0.5]];portConstraint=eastwest;" vertex="1" parent="ZMaBbFyFWC1W5k3W71gB-268">
          <mxGeometry y="120" width="200" height="40" as="geometry" />
        </mxCell>
        <mxCell id="ZMaBbFyFWC1W5k3W71gB-288" value="" style="shape=partialRectangle;html=1;whiteSpace=wrap;connectable=0;overflow=hidden;fillColor=none;top=0;left=0;bottom=0;right=0;" vertex="1" parent="ZMaBbFyFWC1W5k3W71gB-287">
          <mxGeometry width="40" height="40" as="geometry" />
        </mxCell>
        <mxCell id="ZMaBbFyFWC1W5k3W71gB-289" value="" style="shape=partialRectangle;html=1;whiteSpace=wrap;connectable=0;overflow=hidden;fillColor=none;top=0;left=0;bottom=0;right=0;" vertex="1" parent="ZMaBbFyFWC1W5k3W71gB-287">
          <mxGeometry x="40" width="40" height="40" as="geometry" />
        </mxCell>
        <mxCell id="ZMaBbFyFWC1W5k3W71gB-290" value="" style="shape=partialRectangle;html=1;whiteSpace=wrap;connectable=0;overflow=hidden;fillColor=none;top=0;left=0;bottom=0;right=0;" vertex="1" parent="ZMaBbFyFWC1W5k3W71gB-287">
          <mxGeometry x="80" width="40" height="40" as="geometry" />
        </mxCell>
        <mxCell id="ZMaBbFyFWC1W5k3W71gB-291" value="" style="shape=partialRectangle;html=1;whiteSpace=wrap;connectable=0;overflow=hidden;fillColor=none;top=0;left=0;bottom=0;right=0;" vertex="1" parent="ZMaBbFyFWC1W5k3W71gB-287">
          <mxGeometry x="120" width="40" height="40" as="geometry" />
        </mxCell>
        <mxCell id="ZMaBbFyFWC1W5k3W71gB-292" value="" style="shape=partialRectangle;html=1;whiteSpace=wrap;connectable=0;overflow=hidden;fillColor=none;top=0;left=0;bottom=0;right=0;" vertex="1" parent="ZMaBbFyFWC1W5k3W71gB-287">
          <mxGeometry x="160" width="40" height="40" as="geometry" />
        </mxCell>
        <mxCell id="ZMaBbFyFWC1W5k3W71gB-293" value="" style="shape=partialRectangle;collapsible=0;dropTarget=0;pointerEvents=0;fillColor=none;top=0;left=0;bottom=0;right=0;points=[[0,0.5],[1,0.5]];portConstraint=eastwest;" vertex="1" parent="ZMaBbFyFWC1W5k3W71gB-268">
          <mxGeometry y="160" width="200" height="40" as="geometry" />
        </mxCell>
        <mxCell id="ZMaBbFyFWC1W5k3W71gB-294" value="" style="shape=partialRectangle;html=1;whiteSpace=wrap;connectable=0;overflow=hidden;fillColor=none;top=0;left=0;bottom=0;right=0;" vertex="1" parent="ZMaBbFyFWC1W5k3W71gB-293">
          <mxGeometry width="40" height="40" as="geometry" />
        </mxCell>
        <mxCell id="ZMaBbFyFWC1W5k3W71gB-295" value="" style="shape=partialRectangle;html=1;whiteSpace=wrap;connectable=0;overflow=hidden;fillColor=none;top=0;left=0;bottom=0;right=0;" vertex="1" parent="ZMaBbFyFWC1W5k3W71gB-293">
          <mxGeometry x="40" width="40" height="40" as="geometry" />
        </mxCell>
        <mxCell id="ZMaBbFyFWC1W5k3W71gB-296" value="" style="shape=partialRectangle;html=1;whiteSpace=wrap;connectable=0;overflow=hidden;fillColor=none;top=0;left=0;bottom=0;right=0;" vertex="1" parent="ZMaBbFyFWC1W5k3W71gB-293">
          <mxGeometry x="80" width="40" height="40" as="geometry" />
        </mxCell>
        <mxCell id="ZMaBbFyFWC1W5k3W71gB-297" value="" style="shape=partialRectangle;html=1;whiteSpace=wrap;connectable=0;overflow=hidden;fillColor=none;top=0;left=0;bottom=0;right=0;" vertex="1" parent="ZMaBbFyFWC1W5k3W71gB-293">
          <mxGeometry x="120" width="40" height="40" as="geometry" />
        </mxCell>
        <mxCell id="ZMaBbFyFWC1W5k3W71gB-298" value="" style="shape=partialRectangle;html=1;whiteSpace=wrap;connectable=0;overflow=hidden;fillColor=none;top=0;left=0;bottom=0;right=0;" vertex="1" parent="ZMaBbFyFWC1W5k3W71gB-293">
          <mxGeometry x="160" width="40" height="40" as="geometry" />
        </mxCell>
        <mxCell id="ZMaBbFyFWC1W5k3W71gB-299" value="" style="swimlane;startSize=0;strokeWidth=5;fillColor=#FF3333;strokeColor=#FF3333;" vertex="1" parent="1">
          <mxGeometry x="300" y="560" width="80" height="80" as="geometry" />
        </mxCell>
        <mxCell id="ZMaBbFyFWC1W5k3W71gB-300" value="" style="shape=table;startSize=0;container=1;collapsible=0;childLayout=tableLayout;" vertex="1" parent="1">
          <mxGeometry x="260" y="820" width="200" height="200" as="geometry" />
        </mxCell>
        <mxCell id="ZMaBbFyFWC1W5k3W71gB-301" value="" style="shape=partialRectangle;collapsible=0;dropTarget=0;pointerEvents=0;fillColor=none;top=0;left=0;bottom=0;right=0;points=[[0,0.5],[1,0.5]];portConstraint=eastwest;" vertex="1" parent="ZMaBbFyFWC1W5k3W71gB-300">
          <mxGeometry width="200" height="40" as="geometry" />
        </mxCell>
        <mxCell id="ZMaBbFyFWC1W5k3W71gB-302" value="" style="shape=partialRectangle;html=1;whiteSpace=wrap;connectable=0;overflow=hidden;fillColor=none;top=0;left=0;bottom=0;right=0;" vertex="1" parent="ZMaBbFyFWC1W5k3W71gB-301">
          <mxGeometry width="40" height="40" as="geometry" />
        </mxCell>
        <mxCell id="ZMaBbFyFWC1W5k3W71gB-303" value="" style="shape=partialRectangle;html=1;whiteSpace=wrap;connectable=0;overflow=hidden;fillColor=none;top=0;left=0;bottom=0;right=0;" vertex="1" parent="ZMaBbFyFWC1W5k3W71gB-301">
          <mxGeometry x="40" width="40" height="40" as="geometry" />
        </mxCell>
        <mxCell id="ZMaBbFyFWC1W5k3W71gB-304" value="" style="shape=partialRectangle;html=1;whiteSpace=wrap;connectable=0;overflow=hidden;fillColor=none;top=0;left=0;bottom=0;right=0;" vertex="1" parent="ZMaBbFyFWC1W5k3W71gB-301">
          <mxGeometry x="80" width="40" height="40" as="geometry" />
        </mxCell>
        <mxCell id="ZMaBbFyFWC1W5k3W71gB-305" value="" style="shape=partialRectangle;html=1;whiteSpace=wrap;connectable=0;overflow=hidden;fillColor=none;top=0;left=0;bottom=0;right=0;" vertex="1" parent="ZMaBbFyFWC1W5k3W71gB-301">
          <mxGeometry x="120" width="40" height="40" as="geometry" />
        </mxCell>
        <mxCell id="ZMaBbFyFWC1W5k3W71gB-306" value="" style="shape=partialRectangle;html=1;whiteSpace=wrap;connectable=0;overflow=hidden;fillColor=none;top=0;left=0;bottom=0;right=0;" vertex="1" parent="ZMaBbFyFWC1W5k3W71gB-301">
          <mxGeometry x="160" width="40" height="40" as="geometry" />
        </mxCell>
        <mxCell id="ZMaBbFyFWC1W5k3W71gB-307" value="" style="shape=partialRectangle;collapsible=0;dropTarget=0;pointerEvents=0;fillColor=none;top=0;left=0;bottom=0;right=0;points=[[0,0.5],[1,0.5]];portConstraint=eastwest;" vertex="1" parent="ZMaBbFyFWC1W5k3W71gB-300">
          <mxGeometry y="40" width="200" height="40" as="geometry" />
        </mxCell>
        <mxCell id="ZMaBbFyFWC1W5k3W71gB-308" value="" style="shape=partialRectangle;html=1;whiteSpace=wrap;connectable=0;overflow=hidden;fillColor=none;top=0;left=0;bottom=0;right=0;" vertex="1" parent="ZMaBbFyFWC1W5k3W71gB-307">
          <mxGeometry width="40" height="40" as="geometry" />
        </mxCell>
        <mxCell id="ZMaBbFyFWC1W5k3W71gB-309" value="" style="shape=partialRectangle;html=1;whiteSpace=wrap;connectable=0;overflow=hidden;fillColor=none;top=0;left=0;bottom=0;right=0;" vertex="1" parent="ZMaBbFyFWC1W5k3W71gB-307">
          <mxGeometry x="40" width="40" height="40" as="geometry" />
        </mxCell>
        <mxCell id="ZMaBbFyFWC1W5k3W71gB-310" value="" style="shape=partialRectangle;html=1;whiteSpace=wrap;connectable=0;overflow=hidden;fillColor=none;top=0;left=0;bottom=0;right=0;" vertex="1" parent="ZMaBbFyFWC1W5k3W71gB-307">
          <mxGeometry x="80" width="40" height="40" as="geometry" />
        </mxCell>
        <mxCell id="ZMaBbFyFWC1W5k3W71gB-311" value="" style="shape=partialRectangle;html=1;whiteSpace=wrap;connectable=0;overflow=hidden;fillColor=none;top=0;left=0;bottom=0;right=0;" vertex="1" parent="ZMaBbFyFWC1W5k3W71gB-307">
          <mxGeometry x="120" width="40" height="40" as="geometry" />
        </mxCell>
        <mxCell id="ZMaBbFyFWC1W5k3W71gB-312" value="" style="shape=partialRectangle;html=1;whiteSpace=wrap;connectable=0;overflow=hidden;fillColor=none;top=0;left=0;bottom=0;right=0;" vertex="1" parent="ZMaBbFyFWC1W5k3W71gB-307">
          <mxGeometry x="160" width="40" height="40" as="geometry" />
        </mxCell>
        <mxCell id="ZMaBbFyFWC1W5k3W71gB-313" value="" style="shape=partialRectangle;collapsible=0;dropTarget=0;pointerEvents=0;fillColor=none;top=0;left=0;bottom=0;right=0;points=[[0,0.5],[1,0.5]];portConstraint=eastwest;" vertex="1" parent="ZMaBbFyFWC1W5k3W71gB-300">
          <mxGeometry y="80" width="200" height="40" as="geometry" />
        </mxCell>
        <mxCell id="ZMaBbFyFWC1W5k3W71gB-314" value="" style="shape=partialRectangle;html=1;whiteSpace=wrap;connectable=0;overflow=hidden;fillColor=none;top=0;left=0;bottom=0;right=0;" vertex="1" parent="ZMaBbFyFWC1W5k3W71gB-313">
          <mxGeometry width="40" height="40" as="geometry" />
        </mxCell>
        <mxCell id="ZMaBbFyFWC1W5k3W71gB-315" value="" style="shape=partialRectangle;html=1;whiteSpace=wrap;connectable=0;overflow=hidden;fillColor=none;top=0;left=0;bottom=0;right=0;" vertex="1" parent="ZMaBbFyFWC1W5k3W71gB-313">
          <mxGeometry x="40" width="40" height="40" as="geometry" />
        </mxCell>
        <mxCell id="ZMaBbFyFWC1W5k3W71gB-316" value="" style="shape=partialRectangle;html=1;whiteSpace=wrap;connectable=0;overflow=hidden;fillColor=#f0a30a;top=0;left=0;bottom=0;right=0;strokeColor=#BD7000;fontColor=#000000;" vertex="1" parent="ZMaBbFyFWC1W5k3W71gB-313">
          <mxGeometry x="80" width="40" height="40" as="geometry" />
        </mxCell>
        <mxCell id="ZMaBbFyFWC1W5k3W71gB-317" value="" style="shape=partialRectangle;html=1;whiteSpace=wrap;connectable=0;overflow=hidden;fillColor=none;top=0;left=0;bottom=0;right=0;" vertex="1" parent="ZMaBbFyFWC1W5k3W71gB-313">
          <mxGeometry x="120" width="40" height="40" as="geometry" />
        </mxCell>
        <mxCell id="ZMaBbFyFWC1W5k3W71gB-318" value="" style="shape=partialRectangle;html=1;whiteSpace=wrap;connectable=0;overflow=hidden;fillColor=none;top=0;left=0;bottom=0;right=0;" vertex="1" parent="ZMaBbFyFWC1W5k3W71gB-313">
          <mxGeometry x="160" width="40" height="40" as="geometry" />
        </mxCell>
        <mxCell id="ZMaBbFyFWC1W5k3W71gB-319" value="" style="shape=partialRectangle;collapsible=0;dropTarget=0;pointerEvents=0;fillColor=none;top=0;left=0;bottom=0;right=0;points=[[0,0.5],[1,0.5]];portConstraint=eastwest;" vertex="1" parent="ZMaBbFyFWC1W5k3W71gB-300">
          <mxGeometry y="120" width="200" height="40" as="geometry" />
        </mxCell>
        <mxCell id="ZMaBbFyFWC1W5k3W71gB-320" value="" style="shape=partialRectangle;html=1;whiteSpace=wrap;connectable=0;overflow=hidden;fillColor=none;top=0;left=0;bottom=0;right=0;" vertex="1" parent="ZMaBbFyFWC1W5k3W71gB-319">
          <mxGeometry width="40" height="40" as="geometry" />
        </mxCell>
        <mxCell id="ZMaBbFyFWC1W5k3W71gB-321" value="" style="shape=partialRectangle;html=1;whiteSpace=wrap;connectable=0;overflow=hidden;fillColor=none;top=0;left=0;bottom=0;right=0;" vertex="1" parent="ZMaBbFyFWC1W5k3W71gB-319">
          <mxGeometry x="40" width="40" height="40" as="geometry" />
        </mxCell>
        <mxCell id="ZMaBbFyFWC1W5k3W71gB-322" value="" style="shape=partialRectangle;html=1;whiteSpace=wrap;connectable=0;overflow=hidden;fillColor=none;top=0;left=0;bottom=0;right=0;" vertex="1" parent="ZMaBbFyFWC1W5k3W71gB-319">
          <mxGeometry x="80" width="40" height="40" as="geometry" />
        </mxCell>
        <mxCell id="ZMaBbFyFWC1W5k3W71gB-323" value="" style="shape=partialRectangle;html=1;whiteSpace=wrap;connectable=0;overflow=hidden;fillColor=none;top=0;left=0;bottom=0;right=0;" vertex="1" parent="ZMaBbFyFWC1W5k3W71gB-319">
          <mxGeometry x="120" width="40" height="40" as="geometry" />
        </mxCell>
        <mxCell id="ZMaBbFyFWC1W5k3W71gB-324" value="" style="shape=partialRectangle;html=1;whiteSpace=wrap;connectable=0;overflow=hidden;fillColor=none;top=0;left=0;bottom=0;right=0;" vertex="1" parent="ZMaBbFyFWC1W5k3W71gB-319">
          <mxGeometry x="160" width="40" height="40" as="geometry" />
        </mxCell>
        <mxCell id="ZMaBbFyFWC1W5k3W71gB-325" value="" style="shape=partialRectangle;collapsible=0;dropTarget=0;pointerEvents=0;fillColor=none;top=0;left=0;bottom=0;right=0;points=[[0,0.5],[1,0.5]];portConstraint=eastwest;" vertex="1" parent="ZMaBbFyFWC1W5k3W71gB-300">
          <mxGeometry y="160" width="200" height="40" as="geometry" />
        </mxCell>
        <mxCell id="ZMaBbFyFWC1W5k3W71gB-326" value="" style="shape=partialRectangle;html=1;whiteSpace=wrap;connectable=0;overflow=hidden;fillColor=none;top=0;left=0;bottom=0;right=0;" vertex="1" parent="ZMaBbFyFWC1W5k3W71gB-325">
          <mxGeometry width="40" height="40" as="geometry" />
        </mxCell>
        <mxCell id="ZMaBbFyFWC1W5k3W71gB-327" value="" style="shape=partialRectangle;html=1;whiteSpace=wrap;connectable=0;overflow=hidden;fillColor=none;top=0;left=0;bottom=0;right=0;" vertex="1" parent="ZMaBbFyFWC1W5k3W71gB-325">
          <mxGeometry x="40" width="40" height="40" as="geometry" />
        </mxCell>
        <mxCell id="ZMaBbFyFWC1W5k3W71gB-328" value="" style="shape=partialRectangle;html=1;whiteSpace=wrap;connectable=0;overflow=hidden;fillColor=none;top=0;left=0;bottom=0;right=0;" vertex="1" parent="ZMaBbFyFWC1W5k3W71gB-325">
          <mxGeometry x="80" width="40" height="40" as="geometry" />
        </mxCell>
        <mxCell id="ZMaBbFyFWC1W5k3W71gB-329" value="" style="shape=partialRectangle;html=1;whiteSpace=wrap;connectable=0;overflow=hidden;fillColor=none;top=0;left=0;bottom=0;right=0;" vertex="1" parent="ZMaBbFyFWC1W5k3W71gB-325">
          <mxGeometry x="120" width="40" height="40" as="geometry" />
        </mxCell>
        <mxCell id="ZMaBbFyFWC1W5k3W71gB-330" value="" style="shape=partialRectangle;html=1;whiteSpace=wrap;connectable=0;overflow=hidden;fillColor=none;top=0;left=0;bottom=0;right=0;" vertex="1" parent="ZMaBbFyFWC1W5k3W71gB-325">
          <mxGeometry x="160" width="40" height="40" as="geometry" />
        </mxCell>
        <mxCell id="ZMaBbFyFWC1W5k3W71gB-331" value="" style="swimlane;startSize=0;strokeColor=#FF3333;strokeWidth=5;fillColor=#FF3333;" vertex="1" parent="1">
          <mxGeometry x="300" y="860" width="160" height="160" as="geometry" />
        </mxCell>
        <mxCell id="ZMaBbFyFWC1W5k3W71gB-332" value="" style="shape=table;startSize=0;container=1;collapsible=0;childLayout=tableLayout;" vertex="1" parent="1">
          <mxGeometry x="190" y="60" width="360" height="360" as="geometry" />
        </mxCell>
        <mxCell id="ZMaBbFyFWC1W5k3W71gB-333" value="" style="shape=partialRectangle;collapsible=0;dropTarget=0;pointerEvents=0;fillColor=none;top=0;left=0;bottom=0;right=0;points=[[0,0.5],[1,0.5]];portConstraint=eastwest;" vertex="1" parent="ZMaBbFyFWC1W5k3W71gB-332">
          <mxGeometry width="360" height="40" as="geometry" />
        </mxCell>
        <mxCell id="ZMaBbFyFWC1W5k3W71gB-334" value="" style="shape=partialRectangle;html=1;whiteSpace=wrap;connectable=0;overflow=hidden;fillColor=none;top=0;left=0;bottom=0;right=0;" vertex="1" parent="ZMaBbFyFWC1W5k3W71gB-333">
          <mxGeometry width="42" height="40" as="geometry" />
        </mxCell>
        <mxCell id="ZMaBbFyFWC1W5k3W71gB-335" value="" style="shape=partialRectangle;html=1;whiteSpace=wrap;connectable=0;overflow=hidden;fillColor=none;top=0;left=0;bottom=0;right=0;" vertex="1" parent="ZMaBbFyFWC1W5k3W71gB-333">
          <mxGeometry x="42" width="38" height="40" as="geometry" />
        </mxCell>
        <mxCell id="ZMaBbFyFWC1W5k3W71gB-336" value="" style="shape=partialRectangle;html=1;whiteSpace=wrap;connectable=0;overflow=hidden;fillColor=none;top=0;left=0;bottom=0;right=0;" vertex="1" parent="ZMaBbFyFWC1W5k3W71gB-333">
          <mxGeometry x="80" width="42" height="40" as="geometry" />
        </mxCell>
        <mxCell id="ZMaBbFyFWC1W5k3W71gB-337" value="" style="shape=partialRectangle;html=1;whiteSpace=wrap;connectable=0;overflow=hidden;fillColor=none;top=0;left=0;bottom=0;right=0;" vertex="1" parent="ZMaBbFyFWC1W5k3W71gB-333">
          <mxGeometry x="122" width="41" height="40" as="geometry" />
        </mxCell>
        <mxCell id="ZMaBbFyFWC1W5k3W71gB-338" value="" style="shape=partialRectangle;html=1;whiteSpace=wrap;connectable=0;overflow=hidden;fillColor=none;top=0;left=0;bottom=0;right=0;" vertex="1" parent="ZMaBbFyFWC1W5k3W71gB-333">
          <mxGeometry x="163" width="34" height="40" as="geometry" />
        </mxCell>
        <mxCell id="ZMaBbFyFWC1W5k3W71gB-339" value="" style="shape=partialRectangle;html=1;whiteSpace=wrap;connectable=0;overflow=hidden;fillColor=none;top=0;left=0;bottom=0;right=0;" vertex="1" parent="ZMaBbFyFWC1W5k3W71gB-333">
          <mxGeometry x="197" width="41" height="40" as="geometry" />
        </mxCell>
        <mxCell id="ZMaBbFyFWC1W5k3W71gB-340" value="" style="shape=partialRectangle;html=1;whiteSpace=wrap;connectable=0;overflow=hidden;fillColor=none;top=0;left=0;bottom=0;right=0;" vertex="1" parent="ZMaBbFyFWC1W5k3W71gB-333">
          <mxGeometry x="238" width="42" height="40" as="geometry" />
        </mxCell>
        <mxCell id="ZMaBbFyFWC1W5k3W71gB-341" value="" style="shape=partialRectangle;html=1;whiteSpace=wrap;connectable=0;overflow=hidden;fillColor=none;top=0;left=0;bottom=0;right=0;" vertex="1" parent="ZMaBbFyFWC1W5k3W71gB-333">
          <mxGeometry x="280" width="38" height="40" as="geometry" />
        </mxCell>
        <mxCell id="ZMaBbFyFWC1W5k3W71gB-342" value="" style="shape=partialRectangle;html=1;whiteSpace=wrap;connectable=0;overflow=hidden;fillColor=none;top=0;left=0;bottom=0;right=0;" vertex="1" parent="ZMaBbFyFWC1W5k3W71gB-333">
          <mxGeometry x="318" width="42" height="40" as="geometry" />
        </mxCell>
        <mxCell id="ZMaBbFyFWC1W5k3W71gB-343" value="" style="shape=partialRectangle;collapsible=0;dropTarget=0;pointerEvents=0;fillColor=none;top=0;left=0;bottom=0;right=0;points=[[0,0.5],[1,0.5]];portConstraint=eastwest;" vertex="1" parent="ZMaBbFyFWC1W5k3W71gB-332">
          <mxGeometry y="40" width="360" height="40" as="geometry" />
        </mxCell>
        <mxCell id="ZMaBbFyFWC1W5k3W71gB-344" value="" style="shape=partialRectangle;html=1;whiteSpace=wrap;connectable=0;overflow=hidden;fillColor=none;top=0;left=0;bottom=0;right=0;" vertex="1" parent="ZMaBbFyFWC1W5k3W71gB-343">
          <mxGeometry width="42" height="40" as="geometry" />
        </mxCell>
        <mxCell id="ZMaBbFyFWC1W5k3W71gB-345" value="" style="shape=partialRectangle;html=1;whiteSpace=wrap;connectable=0;overflow=hidden;fillColor=none;top=0;left=0;bottom=0;right=0;" vertex="1" parent="ZMaBbFyFWC1W5k3W71gB-343">
          <mxGeometry x="42" width="38" height="40" as="geometry" />
        </mxCell>
        <mxCell id="ZMaBbFyFWC1W5k3W71gB-346" value="" style="shape=partialRectangle;html=1;whiteSpace=wrap;connectable=0;overflow=hidden;fillColor=none;top=0;left=0;bottom=0;right=0;" vertex="1" parent="ZMaBbFyFWC1W5k3W71gB-343">
          <mxGeometry x="80" width="42" height="40" as="geometry" />
        </mxCell>
        <mxCell id="ZMaBbFyFWC1W5k3W71gB-347" value="" style="shape=partialRectangle;html=1;whiteSpace=wrap;connectable=0;overflow=hidden;fillColor=none;top=0;left=0;bottom=0;right=0;" vertex="1" parent="ZMaBbFyFWC1W5k3W71gB-343">
          <mxGeometry x="122" width="41" height="40" as="geometry" />
        </mxCell>
        <mxCell id="ZMaBbFyFWC1W5k3W71gB-348" value="" style="shape=partialRectangle;html=1;whiteSpace=wrap;connectable=0;overflow=hidden;fillColor=none;top=0;left=0;bottom=0;right=0;" vertex="1" parent="ZMaBbFyFWC1W5k3W71gB-343">
          <mxGeometry x="163" width="34" height="40" as="geometry" />
        </mxCell>
        <mxCell id="ZMaBbFyFWC1W5k3W71gB-349" value="" style="shape=partialRectangle;html=1;whiteSpace=wrap;connectable=0;overflow=hidden;fillColor=none;top=0;left=0;bottom=0;right=0;" vertex="1" parent="ZMaBbFyFWC1W5k3W71gB-343">
          <mxGeometry x="197" width="41" height="40" as="geometry" />
        </mxCell>
        <mxCell id="ZMaBbFyFWC1W5k3W71gB-350" value="" style="shape=partialRectangle;html=1;whiteSpace=wrap;connectable=0;overflow=hidden;fillColor=none;top=0;left=0;bottom=0;right=0;" vertex="1" parent="ZMaBbFyFWC1W5k3W71gB-343">
          <mxGeometry x="238" width="42" height="40" as="geometry" />
        </mxCell>
        <mxCell id="ZMaBbFyFWC1W5k3W71gB-351" value="" style="shape=partialRectangle;html=1;whiteSpace=wrap;connectable=0;overflow=hidden;fillColor=none;top=0;left=0;bottom=0;right=0;" vertex="1" parent="ZMaBbFyFWC1W5k3W71gB-343">
          <mxGeometry x="280" width="38" height="40" as="geometry" />
        </mxCell>
        <mxCell id="ZMaBbFyFWC1W5k3W71gB-352" value="" style="shape=partialRectangle;html=1;whiteSpace=wrap;connectable=0;overflow=hidden;fillColor=none;top=0;left=0;bottom=0;right=0;" vertex="1" parent="ZMaBbFyFWC1W5k3W71gB-343">
          <mxGeometry x="318" width="42" height="40" as="geometry" />
        </mxCell>
        <mxCell id="ZMaBbFyFWC1W5k3W71gB-353" value="" style="shape=partialRectangle;collapsible=0;dropTarget=0;pointerEvents=0;fillColor=none;top=0;left=0;bottom=0;right=0;points=[[0,0.5],[1,0.5]];portConstraint=eastwest;" vertex="1" parent="ZMaBbFyFWC1W5k3W71gB-332">
          <mxGeometry y="80" width="360" height="40" as="geometry" />
        </mxCell>
        <mxCell id="ZMaBbFyFWC1W5k3W71gB-354" value="" style="shape=partialRectangle;html=1;whiteSpace=wrap;connectable=0;overflow=hidden;fillColor=none;top=0;left=0;bottom=0;right=0;" vertex="1" parent="ZMaBbFyFWC1W5k3W71gB-353">
          <mxGeometry width="42" height="40" as="geometry" />
        </mxCell>
        <mxCell id="ZMaBbFyFWC1W5k3W71gB-355" value="" style="shape=partialRectangle;html=1;whiteSpace=wrap;connectable=0;overflow=hidden;fillColor=none;top=0;left=0;bottom=0;right=0;" vertex="1" parent="ZMaBbFyFWC1W5k3W71gB-353">
          <mxGeometry x="42" width="38" height="40" as="geometry" />
        </mxCell>
        <mxCell id="ZMaBbFyFWC1W5k3W71gB-356" value="" style="shape=partialRectangle;html=1;whiteSpace=wrap;connectable=0;overflow=hidden;fillColor=none;top=0;left=0;bottom=0;right=0;" vertex="1" parent="ZMaBbFyFWC1W5k3W71gB-353">
          <mxGeometry x="80" width="42" height="40" as="geometry" />
        </mxCell>
        <mxCell id="ZMaBbFyFWC1W5k3W71gB-357" value="" style="shape=partialRectangle;html=1;whiteSpace=wrap;connectable=0;overflow=hidden;fillColor=none;top=0;left=0;bottom=0;right=0;" vertex="1" parent="ZMaBbFyFWC1W5k3W71gB-353">
          <mxGeometry x="122" width="41" height="40" as="geometry" />
        </mxCell>
        <mxCell id="ZMaBbFyFWC1W5k3W71gB-358" value="" style="shape=partialRectangle;html=1;whiteSpace=wrap;connectable=0;overflow=hidden;fillColor=none;top=0;left=0;bottom=0;right=0;" vertex="1" parent="ZMaBbFyFWC1W5k3W71gB-353">
          <mxGeometry x="163" width="34" height="40" as="geometry" />
        </mxCell>
        <mxCell id="ZMaBbFyFWC1W5k3W71gB-359" value="" style="shape=partialRectangle;html=1;whiteSpace=wrap;connectable=0;overflow=hidden;fillColor=none;top=0;left=0;bottom=0;right=0;" vertex="1" parent="ZMaBbFyFWC1W5k3W71gB-353">
          <mxGeometry x="197" width="41" height="40" as="geometry" />
        </mxCell>
        <mxCell id="ZMaBbFyFWC1W5k3W71gB-360" value="" style="shape=partialRectangle;html=1;whiteSpace=wrap;connectable=0;overflow=hidden;fillColor=none;top=0;left=0;bottom=0;right=0;" vertex="1" parent="ZMaBbFyFWC1W5k3W71gB-353">
          <mxGeometry x="238" width="42" height="40" as="geometry" />
        </mxCell>
        <mxCell id="ZMaBbFyFWC1W5k3W71gB-361" value="" style="shape=partialRectangle;html=1;whiteSpace=wrap;connectable=0;overflow=hidden;fillColor=none;top=0;left=0;bottom=0;right=0;" vertex="1" parent="ZMaBbFyFWC1W5k3W71gB-353">
          <mxGeometry x="280" width="38" height="40" as="geometry" />
        </mxCell>
        <mxCell id="ZMaBbFyFWC1W5k3W71gB-362" value="" style="shape=partialRectangle;html=1;whiteSpace=wrap;connectable=0;overflow=hidden;fillColor=none;top=0;left=0;bottom=0;right=0;" vertex="1" parent="ZMaBbFyFWC1W5k3W71gB-353">
          <mxGeometry x="318" width="42" height="40" as="geometry" />
        </mxCell>
        <mxCell id="ZMaBbFyFWC1W5k3W71gB-363" value="" style="shape=partialRectangle;collapsible=0;dropTarget=0;pointerEvents=0;fillColor=none;top=0;left=0;bottom=0;right=0;points=[[0,0.5],[1,0.5]];portConstraint=eastwest;" vertex="1" parent="ZMaBbFyFWC1W5k3W71gB-332">
          <mxGeometry y="120" width="360" height="40" as="geometry" />
        </mxCell>
        <mxCell id="ZMaBbFyFWC1W5k3W71gB-364" value="" style="shape=partialRectangle;html=1;whiteSpace=wrap;connectable=0;overflow=hidden;fillColor=none;top=0;left=0;bottom=0;right=0;" vertex="1" parent="ZMaBbFyFWC1W5k3W71gB-363">
          <mxGeometry width="42" height="40" as="geometry" />
        </mxCell>
        <mxCell id="ZMaBbFyFWC1W5k3W71gB-365" value="" style="shape=partialRectangle;html=1;whiteSpace=wrap;connectable=0;overflow=hidden;fillColor=none;top=0;left=0;bottom=0;right=0;" vertex="1" parent="ZMaBbFyFWC1W5k3W71gB-363">
          <mxGeometry x="42" width="38" height="40" as="geometry" />
        </mxCell>
        <mxCell id="ZMaBbFyFWC1W5k3W71gB-366" value="" style="shape=partialRectangle;html=1;whiteSpace=wrap;connectable=0;overflow=hidden;fillColor=none;top=0;left=0;bottom=0;right=0;" vertex="1" parent="ZMaBbFyFWC1W5k3W71gB-363">
          <mxGeometry x="80" width="42" height="40" as="geometry" />
        </mxCell>
        <mxCell id="ZMaBbFyFWC1W5k3W71gB-367" value="" style="shape=partialRectangle;html=1;whiteSpace=wrap;connectable=0;overflow=hidden;fillColor=#f0a30a;top=0;left=0;bottom=0;right=0;strokeColor=#BD7000;fontColor=#000000;" vertex="1" parent="ZMaBbFyFWC1W5k3W71gB-363">
          <mxGeometry x="122" width="41" height="40" as="geometry" />
        </mxCell>
        <mxCell id="ZMaBbFyFWC1W5k3W71gB-368" value="" style="shape=partialRectangle;html=1;whiteSpace=wrap;connectable=0;overflow=hidden;fillColor=none;top=0;left=0;bottom=0;right=0;" vertex="1" parent="ZMaBbFyFWC1W5k3W71gB-363">
          <mxGeometry x="163" width="34" height="40" as="geometry" />
        </mxCell>
        <mxCell id="ZMaBbFyFWC1W5k3W71gB-369" value="" style="shape=partialRectangle;html=1;whiteSpace=wrap;connectable=0;overflow=hidden;fillColor=none;top=0;left=0;bottom=0;right=0;" vertex="1" parent="ZMaBbFyFWC1W5k3W71gB-363">
          <mxGeometry x="197" width="41" height="40" as="geometry" />
        </mxCell>
        <mxCell id="ZMaBbFyFWC1W5k3W71gB-370" value="" style="shape=partialRectangle;html=1;whiteSpace=wrap;connectable=0;overflow=hidden;fillColor=none;top=0;left=0;bottom=0;right=0;" vertex="1" parent="ZMaBbFyFWC1W5k3W71gB-363">
          <mxGeometry x="238" width="42" height="40" as="geometry" />
        </mxCell>
        <mxCell id="ZMaBbFyFWC1W5k3W71gB-371" value="" style="shape=partialRectangle;html=1;whiteSpace=wrap;connectable=0;overflow=hidden;fillColor=none;top=0;left=0;bottom=0;right=0;" vertex="1" parent="ZMaBbFyFWC1W5k3W71gB-363">
          <mxGeometry x="280" width="38" height="40" as="geometry" />
        </mxCell>
        <mxCell id="ZMaBbFyFWC1W5k3W71gB-372" value="" style="shape=partialRectangle;html=1;whiteSpace=wrap;connectable=0;overflow=hidden;fillColor=none;top=0;left=0;bottom=0;right=0;" vertex="1" parent="ZMaBbFyFWC1W5k3W71gB-363">
          <mxGeometry x="318" width="42" height="40" as="geometry" />
        </mxCell>
        <mxCell id="ZMaBbFyFWC1W5k3W71gB-373" value="" style="shape=partialRectangle;collapsible=0;dropTarget=0;pointerEvents=0;fillColor=none;top=0;left=0;bottom=0;right=0;points=[[0,0.5],[1,0.5]];portConstraint=eastwest;" vertex="1" parent="ZMaBbFyFWC1W5k3W71gB-332">
          <mxGeometry y="160" width="360" height="40" as="geometry" />
        </mxCell>
        <mxCell id="ZMaBbFyFWC1W5k3W71gB-374" value="" style="shape=partialRectangle;html=1;whiteSpace=wrap;connectable=0;overflow=hidden;fillColor=none;top=0;left=0;bottom=0;right=0;" vertex="1" parent="ZMaBbFyFWC1W5k3W71gB-373">
          <mxGeometry width="42" height="40" as="geometry" />
        </mxCell>
        <mxCell id="ZMaBbFyFWC1W5k3W71gB-375" value="" style="shape=partialRectangle;html=1;whiteSpace=wrap;connectable=0;overflow=hidden;fillColor=none;top=0;left=0;bottom=0;right=0;" vertex="1" parent="ZMaBbFyFWC1W5k3W71gB-373">
          <mxGeometry x="42" width="38" height="40" as="geometry" />
        </mxCell>
        <mxCell id="ZMaBbFyFWC1W5k3W71gB-376" value="" style="shape=partialRectangle;html=1;whiteSpace=wrap;connectable=0;overflow=hidden;fillColor=none;top=0;left=0;bottom=0;right=0;" vertex="1" parent="ZMaBbFyFWC1W5k3W71gB-373">
          <mxGeometry x="80" width="42" height="40" as="geometry" />
        </mxCell>
        <mxCell id="ZMaBbFyFWC1W5k3W71gB-377" value="" style="shape=partialRectangle;html=1;whiteSpace=wrap;connectable=0;overflow=hidden;fillColor=none;top=0;left=0;bottom=0;right=0;" vertex="1" parent="ZMaBbFyFWC1W5k3W71gB-373">
          <mxGeometry x="122" width="41" height="40" as="geometry" />
        </mxCell>
        <mxCell id="ZMaBbFyFWC1W5k3W71gB-378" value="" style="shape=partialRectangle;html=1;whiteSpace=wrap;connectable=0;overflow=hidden;fillColor=none;top=0;left=0;bottom=0;right=0;" vertex="1" parent="ZMaBbFyFWC1W5k3W71gB-373">
          <mxGeometry x="163" width="34" height="40" as="geometry" />
        </mxCell>
        <mxCell id="ZMaBbFyFWC1W5k3W71gB-379" value="" style="shape=partialRectangle;html=1;whiteSpace=wrap;connectable=0;overflow=hidden;fillColor=none;top=0;left=0;bottom=0;right=0;" vertex="1" parent="ZMaBbFyFWC1W5k3W71gB-373">
          <mxGeometry x="197" width="41" height="40" as="geometry" />
        </mxCell>
        <mxCell id="ZMaBbFyFWC1W5k3W71gB-380" value="" style="shape=partialRectangle;html=1;whiteSpace=wrap;connectable=0;overflow=hidden;fillColor=none;top=0;left=0;bottom=0;right=0;" vertex="1" parent="ZMaBbFyFWC1W5k3W71gB-373">
          <mxGeometry x="238" width="42" height="40" as="geometry" />
        </mxCell>
        <mxCell id="ZMaBbFyFWC1W5k3W71gB-381" value="" style="shape=partialRectangle;html=1;whiteSpace=wrap;connectable=0;overflow=hidden;fillColor=none;top=0;left=0;bottom=0;right=0;" vertex="1" parent="ZMaBbFyFWC1W5k3W71gB-373">
          <mxGeometry x="280" width="38" height="40" as="geometry" />
        </mxCell>
        <mxCell id="ZMaBbFyFWC1W5k3W71gB-382" value="" style="shape=partialRectangle;html=1;whiteSpace=wrap;connectable=0;overflow=hidden;fillColor=none;top=0;left=0;bottom=0;right=0;" vertex="1" parent="ZMaBbFyFWC1W5k3W71gB-373">
          <mxGeometry x="318" width="42" height="40" as="geometry" />
        </mxCell>
        <mxCell id="ZMaBbFyFWC1W5k3W71gB-383" value="" style="shape=partialRectangle;collapsible=0;dropTarget=0;pointerEvents=0;fillColor=none;top=0;left=0;bottom=0;right=0;points=[[0,0.5],[1,0.5]];portConstraint=eastwest;" vertex="1" parent="ZMaBbFyFWC1W5k3W71gB-332">
          <mxGeometry y="200" width="360" height="40" as="geometry" />
        </mxCell>
        <mxCell id="ZMaBbFyFWC1W5k3W71gB-384" value="" style="shape=partialRectangle;html=1;whiteSpace=wrap;connectable=0;overflow=hidden;fillColor=none;top=0;left=0;bottom=0;right=0;" vertex="1" parent="ZMaBbFyFWC1W5k3W71gB-383">
          <mxGeometry width="42" height="40" as="geometry" />
        </mxCell>
        <mxCell id="ZMaBbFyFWC1W5k3W71gB-385" value="" style="shape=partialRectangle;html=1;whiteSpace=wrap;connectable=0;overflow=hidden;fillColor=none;top=0;left=0;bottom=0;right=0;" vertex="1" parent="ZMaBbFyFWC1W5k3W71gB-383">
          <mxGeometry x="42" width="38" height="40" as="geometry" />
        </mxCell>
        <mxCell id="ZMaBbFyFWC1W5k3W71gB-386" value="" style="shape=partialRectangle;html=1;whiteSpace=wrap;connectable=0;overflow=hidden;fillColor=none;top=0;left=0;bottom=0;right=0;" vertex="1" parent="ZMaBbFyFWC1W5k3W71gB-383">
          <mxGeometry x="80" width="42" height="40" as="geometry" />
        </mxCell>
        <mxCell id="ZMaBbFyFWC1W5k3W71gB-387" value="" style="shape=partialRectangle;html=1;whiteSpace=wrap;connectable=0;overflow=hidden;fillColor=none;top=0;left=0;bottom=0;right=0;" vertex="1" parent="ZMaBbFyFWC1W5k3W71gB-383">
          <mxGeometry x="122" width="41" height="40" as="geometry" />
        </mxCell>
        <mxCell id="ZMaBbFyFWC1W5k3W71gB-388" value="" style="shape=partialRectangle;html=1;whiteSpace=wrap;connectable=0;overflow=hidden;fillColor=none;top=0;left=0;bottom=0;right=0;" vertex="1" parent="ZMaBbFyFWC1W5k3W71gB-383">
          <mxGeometry x="163" width="34" height="40" as="geometry" />
        </mxCell>
        <mxCell id="ZMaBbFyFWC1W5k3W71gB-389" value="" style="shape=partialRectangle;html=1;whiteSpace=wrap;connectable=0;overflow=hidden;fillColor=none;top=0;left=0;bottom=0;right=0;" vertex="1" parent="ZMaBbFyFWC1W5k3W71gB-383">
          <mxGeometry x="197" width="41" height="40" as="geometry" />
        </mxCell>
        <mxCell id="ZMaBbFyFWC1W5k3W71gB-390" value="" style="shape=partialRectangle;html=1;whiteSpace=wrap;connectable=0;overflow=hidden;fillColor=none;top=0;left=0;bottom=0;right=0;" vertex="1" parent="ZMaBbFyFWC1W5k3W71gB-383">
          <mxGeometry x="238" width="42" height="40" as="geometry" />
        </mxCell>
        <mxCell id="ZMaBbFyFWC1W5k3W71gB-391" value="" style="shape=partialRectangle;html=1;whiteSpace=wrap;connectable=0;overflow=hidden;fillColor=none;top=0;left=0;bottom=0;right=0;" vertex="1" parent="ZMaBbFyFWC1W5k3W71gB-383">
          <mxGeometry x="280" width="38" height="40" as="geometry" />
        </mxCell>
        <mxCell id="ZMaBbFyFWC1W5k3W71gB-392" value="" style="shape=partialRectangle;html=1;whiteSpace=wrap;connectable=0;overflow=hidden;fillColor=none;top=0;left=0;bottom=0;right=0;" vertex="1" parent="ZMaBbFyFWC1W5k3W71gB-383">
          <mxGeometry x="318" width="42" height="40" as="geometry" />
        </mxCell>
        <mxCell id="ZMaBbFyFWC1W5k3W71gB-393" value="" style="shape=partialRectangle;collapsible=0;dropTarget=0;pointerEvents=0;fillColor=none;top=0;left=0;bottom=0;right=0;points=[[0,0.5],[1,0.5]];portConstraint=eastwest;" vertex="1" parent="ZMaBbFyFWC1W5k3W71gB-332">
          <mxGeometry y="240" width="360" height="40" as="geometry" />
        </mxCell>
        <mxCell id="ZMaBbFyFWC1W5k3W71gB-394" value="" style="shape=partialRectangle;html=1;whiteSpace=wrap;connectable=0;overflow=hidden;fillColor=none;top=0;left=0;bottom=0;right=0;" vertex="1" parent="ZMaBbFyFWC1W5k3W71gB-393">
          <mxGeometry width="42" height="40" as="geometry" />
        </mxCell>
        <mxCell id="ZMaBbFyFWC1W5k3W71gB-395" value="" style="shape=partialRectangle;html=1;whiteSpace=wrap;connectable=0;overflow=hidden;fillColor=none;top=0;left=0;bottom=0;right=0;" vertex="1" parent="ZMaBbFyFWC1W5k3W71gB-393">
          <mxGeometry x="42" width="38" height="40" as="geometry" />
        </mxCell>
        <mxCell id="ZMaBbFyFWC1W5k3W71gB-396" value="" style="shape=partialRectangle;html=1;whiteSpace=wrap;connectable=0;overflow=hidden;fillColor=none;top=0;left=0;bottom=0;right=0;" vertex="1" parent="ZMaBbFyFWC1W5k3W71gB-393">
          <mxGeometry x="80" width="42" height="40" as="geometry" />
        </mxCell>
        <mxCell id="ZMaBbFyFWC1W5k3W71gB-397" value="" style="shape=partialRectangle;html=1;whiteSpace=wrap;connectable=0;overflow=hidden;fillColor=none;top=0;left=0;bottom=0;right=0;" vertex="1" parent="ZMaBbFyFWC1W5k3W71gB-393">
          <mxGeometry x="122" width="41" height="40" as="geometry" />
        </mxCell>
        <mxCell id="ZMaBbFyFWC1W5k3W71gB-398" value="" style="shape=partialRectangle;html=1;whiteSpace=wrap;connectable=0;overflow=hidden;fillColor=none;top=0;left=0;bottom=0;right=0;" vertex="1" parent="ZMaBbFyFWC1W5k3W71gB-393">
          <mxGeometry x="163" width="34" height="40" as="geometry" />
        </mxCell>
        <mxCell id="ZMaBbFyFWC1W5k3W71gB-399" value="" style="shape=partialRectangle;html=1;whiteSpace=wrap;connectable=0;overflow=hidden;fillColor=none;top=0;left=0;bottom=0;right=0;" vertex="1" parent="ZMaBbFyFWC1W5k3W71gB-393">
          <mxGeometry x="197" width="41" height="40" as="geometry" />
        </mxCell>
        <mxCell id="ZMaBbFyFWC1W5k3W71gB-400" value="" style="shape=partialRectangle;html=1;whiteSpace=wrap;connectable=0;overflow=hidden;fillColor=none;top=0;left=0;bottom=0;right=0;" vertex="1" parent="ZMaBbFyFWC1W5k3W71gB-393">
          <mxGeometry x="238" width="42" height="40" as="geometry" />
        </mxCell>
        <mxCell id="ZMaBbFyFWC1W5k3W71gB-401" value="" style="shape=partialRectangle;html=1;whiteSpace=wrap;connectable=0;overflow=hidden;fillColor=none;top=0;left=0;bottom=0;right=0;" vertex="1" parent="ZMaBbFyFWC1W5k3W71gB-393">
          <mxGeometry x="280" width="38" height="40" as="geometry" />
        </mxCell>
        <mxCell id="ZMaBbFyFWC1W5k3W71gB-402" value="" style="shape=partialRectangle;html=1;whiteSpace=wrap;connectable=0;overflow=hidden;fillColor=none;top=0;left=0;bottom=0;right=0;" vertex="1" parent="ZMaBbFyFWC1W5k3W71gB-393">
          <mxGeometry x="318" width="42" height="40" as="geometry" />
        </mxCell>
        <mxCell id="ZMaBbFyFWC1W5k3W71gB-403" value="" style="shape=partialRectangle;collapsible=0;dropTarget=0;pointerEvents=0;fillColor=none;top=0;left=0;bottom=0;right=0;points=[[0,0.5],[1,0.5]];portConstraint=eastwest;" vertex="1" parent="ZMaBbFyFWC1W5k3W71gB-332">
          <mxGeometry y="280" width="360" height="40" as="geometry" />
        </mxCell>
        <mxCell id="ZMaBbFyFWC1W5k3W71gB-404" value="" style="shape=partialRectangle;html=1;whiteSpace=wrap;connectable=0;overflow=hidden;fillColor=none;top=0;left=0;bottom=0;right=0;" vertex="1" parent="ZMaBbFyFWC1W5k3W71gB-403">
          <mxGeometry width="42" height="40" as="geometry" />
        </mxCell>
        <mxCell id="ZMaBbFyFWC1W5k3W71gB-405" value="" style="shape=partialRectangle;html=1;whiteSpace=wrap;connectable=0;overflow=hidden;fillColor=none;top=0;left=0;bottom=0;right=0;" vertex="1" parent="ZMaBbFyFWC1W5k3W71gB-403">
          <mxGeometry x="42" width="38" height="40" as="geometry" />
        </mxCell>
        <mxCell id="ZMaBbFyFWC1W5k3W71gB-406" value="" style="shape=partialRectangle;html=1;whiteSpace=wrap;connectable=0;overflow=hidden;fillColor=none;top=0;left=0;bottom=0;right=0;" vertex="1" parent="ZMaBbFyFWC1W5k3W71gB-403">
          <mxGeometry x="80" width="42" height="40" as="geometry" />
        </mxCell>
        <mxCell id="ZMaBbFyFWC1W5k3W71gB-407" value="" style="shape=partialRectangle;html=1;whiteSpace=wrap;connectable=0;overflow=hidden;fillColor=none;top=0;left=0;bottom=0;right=0;" vertex="1" parent="ZMaBbFyFWC1W5k3W71gB-403">
          <mxGeometry x="122" width="41" height="40" as="geometry" />
        </mxCell>
        <mxCell id="ZMaBbFyFWC1W5k3W71gB-408" value="" style="shape=partialRectangle;html=1;whiteSpace=wrap;connectable=0;overflow=hidden;fillColor=none;top=0;left=0;bottom=0;right=0;" vertex="1" parent="ZMaBbFyFWC1W5k3W71gB-403">
          <mxGeometry x="163" width="34" height="40" as="geometry" />
        </mxCell>
        <mxCell id="ZMaBbFyFWC1W5k3W71gB-409" value="" style="shape=partialRectangle;html=1;whiteSpace=wrap;connectable=0;overflow=hidden;fillColor=none;top=0;left=0;bottom=0;right=0;" vertex="1" parent="ZMaBbFyFWC1W5k3W71gB-403">
          <mxGeometry x="197" width="41" height="40" as="geometry" />
        </mxCell>
        <mxCell id="ZMaBbFyFWC1W5k3W71gB-410" value="" style="shape=partialRectangle;html=1;whiteSpace=wrap;connectable=0;overflow=hidden;fillColor=none;top=0;left=0;bottom=0;right=0;" vertex="1" parent="ZMaBbFyFWC1W5k3W71gB-403">
          <mxGeometry x="238" width="42" height="40" as="geometry" />
        </mxCell>
        <mxCell id="ZMaBbFyFWC1W5k3W71gB-411" value="" style="shape=partialRectangle;html=1;whiteSpace=wrap;connectable=0;overflow=hidden;fillColor=none;top=0;left=0;bottom=0;right=0;" vertex="1" parent="ZMaBbFyFWC1W5k3W71gB-403">
          <mxGeometry x="280" width="38" height="40" as="geometry" />
        </mxCell>
        <mxCell id="ZMaBbFyFWC1W5k3W71gB-412" value="" style="shape=partialRectangle;html=1;whiteSpace=wrap;connectable=0;overflow=hidden;fillColor=none;top=0;left=0;bottom=0;right=0;" vertex="1" parent="ZMaBbFyFWC1W5k3W71gB-403">
          <mxGeometry x="318" width="42" height="40" as="geometry" />
        </mxCell>
        <mxCell id="ZMaBbFyFWC1W5k3W71gB-413" value="" style="shape=partialRectangle;collapsible=0;dropTarget=0;pointerEvents=0;fillColor=none;top=0;left=0;bottom=0;right=0;points=[[0,0.5],[1,0.5]];portConstraint=eastwest;" vertex="1" parent="ZMaBbFyFWC1W5k3W71gB-332">
          <mxGeometry y="320" width="360" height="40" as="geometry" />
        </mxCell>
        <mxCell id="ZMaBbFyFWC1W5k3W71gB-414" value="" style="shape=partialRectangle;html=1;whiteSpace=wrap;connectable=0;overflow=hidden;fillColor=none;top=0;left=0;bottom=0;right=0;" vertex="1" parent="ZMaBbFyFWC1W5k3W71gB-413">
          <mxGeometry width="42" height="40" as="geometry" />
        </mxCell>
        <mxCell id="ZMaBbFyFWC1W5k3W71gB-415" value="" style="shape=partialRectangle;html=1;whiteSpace=wrap;connectable=0;overflow=hidden;fillColor=none;top=0;left=0;bottom=0;right=0;" vertex="1" parent="ZMaBbFyFWC1W5k3W71gB-413">
          <mxGeometry x="42" width="38" height="40" as="geometry" />
        </mxCell>
        <mxCell id="ZMaBbFyFWC1W5k3W71gB-416" value="" style="shape=partialRectangle;html=1;whiteSpace=wrap;connectable=0;overflow=hidden;fillColor=none;top=0;left=0;bottom=0;right=0;" vertex="1" parent="ZMaBbFyFWC1W5k3W71gB-413">
          <mxGeometry x="80" width="42" height="40" as="geometry" />
        </mxCell>
        <mxCell id="ZMaBbFyFWC1W5k3W71gB-417" value="" style="shape=partialRectangle;html=1;whiteSpace=wrap;connectable=0;overflow=hidden;fillColor=none;top=0;left=0;bottom=0;right=0;" vertex="1" parent="ZMaBbFyFWC1W5k3W71gB-413">
          <mxGeometry x="122" width="41" height="40" as="geometry" />
        </mxCell>
        <mxCell id="ZMaBbFyFWC1W5k3W71gB-418" value="" style="shape=partialRectangle;html=1;whiteSpace=wrap;connectable=0;overflow=hidden;fillColor=none;top=0;left=0;bottom=0;right=0;" vertex="1" parent="ZMaBbFyFWC1W5k3W71gB-413">
          <mxGeometry x="163" width="34" height="40" as="geometry" />
        </mxCell>
        <mxCell id="ZMaBbFyFWC1W5k3W71gB-419" value="" style="shape=partialRectangle;html=1;whiteSpace=wrap;connectable=0;overflow=hidden;fillColor=none;top=0;left=0;bottom=0;right=0;" vertex="1" parent="ZMaBbFyFWC1W5k3W71gB-413">
          <mxGeometry x="197" width="41" height="40" as="geometry" />
        </mxCell>
        <mxCell id="ZMaBbFyFWC1W5k3W71gB-420" value="" style="shape=partialRectangle;html=1;whiteSpace=wrap;connectable=0;overflow=hidden;fillColor=none;top=0;left=0;bottom=0;right=0;" vertex="1" parent="ZMaBbFyFWC1W5k3W71gB-413">
          <mxGeometry x="238" width="42" height="40" as="geometry" />
        </mxCell>
        <mxCell id="ZMaBbFyFWC1W5k3W71gB-421" value="" style="shape=partialRectangle;html=1;whiteSpace=wrap;connectable=0;overflow=hidden;fillColor=none;top=0;left=0;bottom=0;right=0;" vertex="1" parent="ZMaBbFyFWC1W5k3W71gB-413">
          <mxGeometry x="280" width="38" height="40" as="geometry" />
        </mxCell>
        <mxCell id="ZMaBbFyFWC1W5k3W71gB-422" value="" style="shape=partialRectangle;html=1;whiteSpace=wrap;connectable=0;overflow=hidden;fillColor=none;top=0;left=0;bottom=0;right=0;" vertex="1" parent="ZMaBbFyFWC1W5k3W71gB-413">
          <mxGeometry x="318" width="42" height="40" as="geometry" />
        </mxCell>
        <mxCell id="ZMaBbFyFWC1W5k3W71gB-423" value="" style="swimlane;startSize=0;strokeColor=#FF3333;strokeWidth=6;fillColor=#FF3333;" vertex="1" parent="1">
          <mxGeometry x="230" y="100" width="240" height="240" as="geometry" />
        </mxCell>
      </root>
    </mxGraphModel>
  </diagram>
</mxfile>
